<?xml version="1.0" encoding="utf-8"?>
<!-- Generator: Adobe Illustrator 16.0.3, SVG Export Plug-In . SVG Version: 6.00 Build 0)  -->
<!DOCTYPE svg PUBLIC "-//W3C//DTD SVG 1.1//EN" "http://www.w3.org/Graphics/SVG/1.1/DTD/svg11.dtd">
<svg version="1.1" id="Layer_1" xmlns="http://www.w3.org/2000/svg" xmlns:xlink="http://www.w3.org/1999/xlink" x="0px" y="0px"
	 width="12px" height="12px" viewBox="0 0 20 20" enable-background="new 0 0 20 20" xml:space="preserve">
<g>
	<rect fill="transparent" width="20" height="20"/>
	<g>
		<path fill="transparent" d="M0,0v0.56l15.65,14.08l2.9-11.84c0,0,0.49-1.93,1.03-2.21C19.85,0.44,20,0.56,20,0.56V0H0z"/>
		<path fill="#D3D3CB" d="M19.58,0.59c-0.54,0.29-1.03,2.21-1.03,2.21l-2.9,11.84L0,0.56V3c0,0,0.04-0.1,0.12-0.1
			c0.09,0,0.17,0.09,0.17,0.09l16.12,14.43L20,3V0.56C20,0.56,19.85,0.44,19.58,0.59z"/>
	</g>
</g>
</svg>
