<svg xmlns="http://www.w3.org/2000/svg" viewBox="0 0 159.35 144.34"><defs><style>.cls-1{fill:white;}</style></defs><title>Asset 1</title><g id="Layer_2" data-name="Layer 2"><g id="Layer_1-2" data-name="Layer 1"><path class="cls-1" d="M154.85,4.5V104.77H4.5V4.5H154.85m4.5-4.5H0V109.27H159.35V0Z"/><polygon class="cls-1" points="95.52 76.01 95.52 72.63 101.16 72.63 101.16 62.15 85.91 74.47 101.16 86.83 101.16 76.01 95.52 76.01"/><polygon class="cls-1" points="58.88 48.49 74.97 35.47 58.88 22.43 58.88 48.49"/><path class="cls-1" d="M120,22.72a32,32,0,0,0-34.22,4L75,35.47l9.88,8h33.36v3.38H89l8.34,6.76h20.84V57H101.55l36.81,29.82v-35A32,32,0,0,0,120,22.72Z"/><circle class="cls-1" cx="54.17" cy="35.43" r="4.51"/><path class="cls-1" d="M4.58,135.71V144h-4V122.69h7.6a8,8,0,0,1,2.89.48,5.77,5.77,0,0,1,2.08,1.33,5.52,5.52,0,0,1,1.26,2,7.26,7.26,0,0,1,.43,2.55,7.45,7.45,0,0,1-.48,2.73,5.77,5.77,0,0,1-3.46,3.42,7.4,7.4,0,0,1-2.72.48Zm0-9.47v6H7.81a2.85,2.85,0,0,0,2.22-.83,3.26,3.26,0,0,0,.76-2.3A2.78,2.78,0,0,0,10,127a3,3,0,0,0-2.2-.76Z"/><path class="cls-1" d="M31.92,126.24H26.66V144h-4V126.24H17.42v-3.55h14.5Z"/><path class="cls-1" d="M50.12,144H46.06l-1.3-4.18H36.92L35.65,144H31.8l6.86-21.27h4.62Zm-9.33-17.69c-.06.37-.12.73-.19,1.07l-.2.94a8,8,0,0,1-.23.86L38,136.24h5.66l-2.14-7.1c-.08-.28-.16-.59-.24-.92s-.14-.65-.19-.94-.14-.67-.19-1Z"/><path class="cls-1" d="M57.22,135.09V144h-4V122.69h8.9a8.09,8.09,0,0,1,2.82.46,5.6,5.6,0,0,1,2,1.26,5.36,5.36,0,0,1,1.23,1.92,6.89,6.89,0,0,1,.42,2.43,6.26,6.26,0,0,1-.25,1.82,5.87,5.87,0,0,1-.71,1.54,5.5,5.5,0,0,1-1.12,1.24,5.66,5.66,0,0,1-1.49.87l4.1,9.73H64.87l-3.54-8.87Zm0-8.85v5.35h4.37a2.71,2.71,0,0,0,2.12-.75,3,3,0,0,0,.66-2.08,2.64,2.64,0,0,0-.62-1.84,2.6,2.6,0,0,0-2-.68Z"/><path class="cls-1" d="M86.85,144V130.41c0-.23,0-.54,0-.93s0-.76.06-1.12,0-.88.07-1.35h-.12l-3.72,17H79.72L76,127h-.12c0,.49,0,1,.07,1.39q0,.27,0,.57c0,.2,0,.38,0,.57s0,.34,0,.5,0,.27,0,.37V144H72.62V122.69h5.57l2.64,11.72c0,.17.08.37.13.61s.09.47.13.73.1.52.15.8.09.54.13.8c.1.6.2,1.23.3,1.87h.13c.08-.67.16-1.32.24-1.93,0-.27.06-.53.1-.81s.09-.53.13-.79.08-.5.12-.72.08-.41.12-.56l2.6-11.72H90.5V144Z"/><path class="cls-1" d="M98.91,144h-4V122.69h4Z"/><path class="cls-1" d="M111.78,122.32a9.28,9.28,0,0,1,3.07.5,7.69,7.69,0,0,1,2.59,1.5,7.3,7.3,0,0,1,1.79,2.45,8.14,8.14,0,0,1,.66,3.37h-4a5.09,5.09,0,0,0-.34-1.91,4,4,0,0,0-.9-1.37,3.5,3.5,0,0,0-1.33-.84,5,5,0,0,0-3.78.19,4.09,4.09,0,0,0-1.5,1.34,6.4,6.4,0,0,0-.87,2.14,13.79,13.79,0,0,0-.28,2.86v1.56a13.26,13.26,0,0,0,.29,2.89,6.06,6.06,0,0,0,.89,2.14,4,4,0,0,0,1.5,1.32,4.7,4.7,0,0,0,2.15.46,3.9,3.9,0,0,0,1.68-.36,4,4,0,0,0,1.31-1,5,5,0,0,0,.87-1.62,6.93,6.93,0,0,0,.31-2.11h-4.79v-3.4h8.84V144h-2.57l-.68-2.36a6.6,6.6,0,0,1-2.51,2.05,7.38,7.38,0,0,1-3.17.69,8.71,8.71,0,0,1-3.48-.66,6.38,6.38,0,0,1-2.57-2,9.66,9.66,0,0,1-1.6-3.43,19.13,19.13,0,0,1-.55-4.9,17.67,17.67,0,0,1,.6-4.89,9.31,9.31,0,0,1,1.76-3.44,7.11,7.11,0,0,1,2.83-2A10.43,10.43,0,0,1,111.78,122.32Z"/><path class="cls-1" d="M141,144H137l-1.3-4.18h-7.84L126.57,144h-3.85l6.86-21.27h4.62Zm-9.33-17.69c-.06.37-.12.73-.19,1.07l-.2.94a8,8,0,0,1-.23.86l-2.16,7.1h5.66l-2.14-7.1c-.08-.28-.16-.59-.24-.92s-.14-.65-.19-.94-.14-.67-.19-1Z"/><path class="cls-1" d="M155.26,144l-6.56-11.71c-.07-.12-.15-.28-.25-.5s-.22-.43-.33-.66l-.39-.83-.12.09c0,.24,0,.46,0,.68s0,.39,0,.59,0,.36,0,.5V144h-3.5V122.69h3.5l6.57,11.72.29.54.33.66.34.78.09-.09c0-.27,0-.52,0-.75s0-.4,0-.6V122.69h3.55V144Z"/><path class="cls-1" d="M76.87,67.15H41.82V63.77H72.69L64.35,57H41.82V53.62H60.17L21.68,22.43V58.77A32.29,32.29,0,0,0,74.27,83.88l11.64-9.41Z"/></g></g></svg>